<svg xmlns="http://www.w3.org/2000/svg" xmlns:xlink="http://www.w3.org/1999/xlink" version="1.1" x="0px" y="0px" width="269.892px" height="74.839px" viewBox="352.536 264.671 269.892 74.839" enable-background="new 352.536 264.671 269.892 74.839" xml:space="preserve">
<g id="LOGOonDark">
	<g>
		
			<linearGradient id="SVGID_1_" gradientUnits="userSpaceOnUse" x1="-2592.2449" y1="2899.9084" x2="-2634.093" y2="2827.4312" gradientTransform="matrix(1 0 0 -1 3005.575 3169.2505)" fill="#000000">
			<stop offset="0" style="stop-color:#35FFE7" fill="#000000"/>
			<stop offset="1" style="stop-color:#7D2EFF" fill="#000000"/>
		</linearGradient>
		<path fill="url(#SVGID_1_)" d="M382.546,301.313l-15.443-26.726l3.209-5.527c1.594-2.795,4.368-4.389,7.576-4.389h16.56h16.539    c3.23,0,5.983,1.593,7.597,4.389l9.356,16.21h-8.322l-6.727-11.634c-0.683-1.201-1.966-1.821-3.25-1.739h-30.636    c-1.904,0-3.457,1.552-3.478,3.457c0,0.663,0.207,1.305,0.538,1.884l14.366,24.863l-11.447,19.792    c-3.788-6.563-7.576-13.125-11.365-19.688l3.727-6.459l7.204,12.504L382.546,301.313z M435.125,297.712l-3.209-5.527h-30.865    l-3.995-6.936l14.428,0.021l-3.726-6.459c-7.576,0-15.174,0-22.75,0l11.426,19.812h28.992c0.567,0.045,1.124,0.171,1.603,0.456    c1.656,0.973,2.236,3.085,1.262,4.762l-15.319,26.519c-0.559,1.16-1.739,1.946-3.126,1.946h-13.435l-4.16,7.205h18.714    c3.23,0,5.983-1.593,7.597-4.369l8.281-14.346l8.281-14.326C436.719,303.674,436.719,300.486,435.125,297.712z M407.697,312.762    l-7.224,12.504h7.452c3.788-6.563,7.576-13.125,11.364-19.709h-22.854L382.07,330.42c-0.311,0.58-0.766,1.077-1.345,1.408    c-1.656,0.953-3.788,0.373-4.74-1.284l-15.319-26.519c-0.725-1.077-0.808-2.505-0.124-3.685l6.707-11.634l-4.16-7.225    l-9.356,16.21c-1.594,2.795-1.594,5.983,0,8.778l8.281,14.326l8.281,14.346c1.614,2.774,4.368,4.369,7.576,4.369h6.396    l15.422-26.726L407.697,312.762z"/>
	</g>
	<g>
		<path fill="#444463" d="M622.428,274.915v8.35h-2.268v-4.648l-2.341,2.229h-0.228l-2.341-2.229v4.648h-2.268v-8.35h0.907h1.361    l2.493,2.72l2.418-2.72h1.361H622.428z M602.706,277.182h2.644v6.083h2.267v-6.083h2.646v-2.267h-7.557V277.182z"/>
	</g>
	<g>
		<path fill="#444463" d="M515.946,290.822h-14.81c-4.118,0-6.612,1.889-7.444,5.63c-0.113,0.567-0.189,1.096-0.189,1.586v16.777    c0,3.363,1.284,5.743,3.778,7.104c1.057,0.567,2.607,0.869,4.647,0.869h21.308v-7.709h-20.251c-1.021,0-1.549-0.869-1.549-2.267    v-2.909h21.839v-0.491v-6.386v-4.798c0-0.567,0-0.983-0.039-1.285C522.671,292.861,520.253,290.822,515.946,290.822z     M515.342,303.026h-13.903v-2.531c0-0.378,0.077-0.642,0.189-0.831c0.416-0.794,1.208-1.172,2.306-1.172h9.558    c0.151,0,0.302,0.038,0.417,0.038c0.793,0.189,1.435,0.529,1.435,1.172v3.324H515.342z M467.298,298.591h16.413v-7.816h-17.887    c-3.698,0-6.751,2.918-6.751,6.568v6.863c0,3.65,3.053,6.568,6.751,6.568h10.514c0.225,0,0.307,0.152,0.307,0.24v3.941    c0,0.088-0.081,0.24-0.307,0.24h-17.263v7.789h18.794c3.686,0,6.751-2.879,6.751-6.513v-6.918c0-3.634-3.063-6.513-6.751-6.513    h-10.57c-0.028,0-0.083-0.012-0.144-0.078c-0.062-0.066-0.106-0.162-0.106-0.272v-3.831c0-0.094,0.034-0.159,0.074-0.199    C467.161,298.62,467.218,298.591,467.298,298.591z M600.364,294.449v-5.29c0-4.119-3.363-7.482-7.481-7.482h-23.537v7.67h21.535    c1.057,0,1.889,0.794,1.889,1.889v2.985c0,2.305-1.927,4.27-4.231,4.27h-10.844v7.556h10.844c2.341,0,4.231,1.889,4.231,4.194    v3.06c0,1.021-0.831,1.851-1.889,1.851h-21.535v7.632h23.537c4.118,0,7.481-3.325,7.481-7.406v-5.365    c0-4.157-3.288-7.406-7.481-7.406v-0.68C597.002,301.931,600.364,298.568,600.364,294.449z M532.162,298.114v16.701    c0,5.327,2.72,7.972,8.16,7.972h20.139v-7.633h-18.324c-1.209,0-2.191-0.983-2.191-2.153v-12.393c0-1.284,1.02-2.116,2.38-2.116    h18.135v-7.67h-21.8C534.314,290.823,532.162,293.241,532.162,298.114z"/>
	</g>
</g>
<g id="LogoOnWhite">
</g>
<g id="LogoVonDark">
</g>
<g id="LogoVonWhite">
</g>
<g id="LogoOnGradientH">
</g>
<g id="LogoOnGradientV">
</g>
<g id="LogoOnGreyH">
</g>
<g id="LogoOnGreyV">
</g>
<g id="GreyOnWhiteH">
</g>
<g id="GreyOnWhiteV">
</g>
<g id="WhiteOnBlackH">
</g>
<g id="WhiteOnBlackV">
</g>
<g id="BlackOnWHiteH">
</g>
<g id="BlackOnWhiteV">
</g>
<g id="TealOnDark">
</g>
<g id="TealOnWhite">
</g>
<g id="TealOnDarkV">
</g>
<g id="TealOnLightV">
</g>
<g id="TealGOnDark">
</g>
<g id="TealGOnLight">
</g>
<g id="TealGOnDarkV">
</g>
<g id="TealGOnWhiteV">
</g>
</svg>