<svg width="226" height="281" viewBox="0 0 226 281" fill="none" xmlns="http://www.w3.org/2000/svg">
<path d="M44 191.5L32 186M32 186L22 185M32 186L27 197M32 186L30.5 173" stroke="#463527" stroke-width="7" stroke-linecap="round" stroke-linejoin="round"/>
<path d="M173.32 200.359L186.249 197.699M186.249 197.699L196.218 198.974M186.249 197.699L188.647 209.542M186.249 197.699L190.635 185.37" stroke="#463527" stroke-width="7" stroke-linecap="round" stroke-linejoin="round"/>
<ellipse cx="74.3187" cy="266.88" rx="15.0068" ry="5.5" transform="rotate(10 74.3187 266.88)" fill="#010101"/>
<path d="M60.5143 257.658L63.8158 239.878C64.4839 236.28 67.8109 233.803 71.4494 234.196L82.1334 235.35C86.1324 235.781 88.9458 239.486 88.2878 243.454L85.3213 261.342C84.8303 264.302 82.4928 266.574 79.494 266.468C75.0579 266.313 69.2811 265.594 64.8306 264.652C61.6473 263.978 59.9203 260.857 60.5143 257.658Z" fill="#191611"/>
<ellipse cx="133.234" cy="272.88" rx="15.0068" ry="5.5" transform="rotate(10 133.234 272.88)" fill="#010101"/>
<path d="M119.43 263.658L122.731 245.878C123.399 242.28 126.726 239.803 130.365 240.196L141.049 241.35C145.048 241.781 147.861 245.486 147.203 249.454L144.236 267.342C143.746 270.302 141.408 272.574 138.409 272.468C133.973 272.313 128.196 271.594 123.746 270.652C120.563 269.978 118.835 266.857 119.43 263.658Z" fill="#191611"/>
<path d="M47.6768 178.871L55.728 182.091C58.342 183.137 61.3034 181.819 62.2767 179.177L66.1705 168.609C66.9543 166.481 69.0715 165.147 71.3289 165.359L158.967 173.575C161.536 173.816 163.5 175.973 163.5 178.553V184C163.5 186.761 165.739 189 168.5 189H172.038C173.59 189 175.102 189.701 175.783 191.096C178.601 196.861 178.3 205.889 177.277 211.389C176.919 213.314 175.25 214.621 173.302 214.809L164.869 215.626C162.593 215.846 160.758 217.579 160.392 219.836C159.19 227.253 157.17 238.818 155.5 245.5C153.572 253.214 144.67 255.659 140.002 255.974C139.667 255.996 139.346 255.974 139.015 255.92C116.658 252.223 70.4277 244.691 60.5 243.5C52.2715 243.142 51.1626 224.359 51.7356 212.049C51.8457 209.684 50.3755 207.513 48.108 206.832L39.5344 204.26C37.9489 203.785 36.6499 202.56 36.4442 200.917C35.4585 193.047 40.065 183.407 43.7092 179.491C44.721 178.403 46.2976 178.319 47.6768 178.871Z" fill="url(#paint0_radial_2_38)"/>
<path d="M89.5 225.619V191.251C89.5 188.589 91.5863 186.394 94.2452 186.258L132.42 184.31C135.568 184.15 138.077 186.906 137.623 190.024L131.711 230.615C131.317 233.323 128.819 235.211 126.107 234.851L93.8431 230.576C91.3573 230.246 89.5 228.126 89.5 225.619Z" fill="#9D8674"/>
<path d="M101.858 208.322L111.164 190.134C111.677 189.131 112.709 188.5 113.835 188.5H118.671C120.041 188.5 121.238 189.429 121.577 190.757L126.076 208.344C126.339 209.37 126.041 210.459 125.291 211.209L114.432 222.068C113.146 223.354 111.02 223.209 109.921 221.759L102.139 211.502C101.443 210.584 101.334 209.348 101.858 208.322Z" fill="#273244"/>
<ellipse cx="114.475" cy="108.189" rx="92.0006" ry="87.3537" transform="rotate(-15 114.475 108.189)" fill="url(#paint1_radial_2_38)"/>
<mask id="mask0_2_38" style="mask-type:alpha" maskUnits="userSpaceOnUse" x="22" y="20" width="185" height="176">
<ellipse cx="114.475" cy="108.189" rx="92.0006" ry="87.3537" transform="rotate(-15 114.475 108.189)" fill="url(#paint2_radial_2_38)"/>
</mask>
<g mask="url(#mask0_2_38)">
<ellipse cx="71.6727" cy="101.584" rx="70.1942" ry="111.843" transform="rotate(-15 71.6727 101.584)" fill="black" fill-opacity="0.1"/>
</g>
<path d="M65.7921 26.0955C71.0112 22.8335 84.82 24.7363 91.072 26.0955L59.2682 39.9587L73.1314 44.8515C39.2074 63.7707 25.8335 92.4213 23.387 104.382C22.2997 101.392 20.4513 91.334 21.7561 75.0244C23.0609 58.7147 36.9784 44.8515 43.7741 39.9587C48.9388 36.6967 60.573 29.3574 65.7921 26.0955Z" fill="black"/>
<path d="M198.716 79.1018C198.716 52.1909 185.668 39.9587 168.543 26.0955C155.7 15.6989 142.332 18.8225 136.23 22.1652C158.005 28.1544 168.475 38.6976 170.989 43.2206H157.126C179.959 48.1134 182.406 55.4528 198.716 79.1018Z" fill="black"/>
<path d="M19.3097 147.602C8.21917 139.774 10.8831 120.419 13.6013 111.721C25.8336 114.983 33.9884 119.876 33.9884 128.846C33.9884 137.816 32.3574 142.709 19.3097 147.602Z" fill="#867567"/>
<path d="M208.501 130.477C219.592 122.648 216.928 103.294 214.21 94.5958C201.978 97.8578 193.823 102.751 193.823 111.721C193.823 120.691 195.454 125.584 208.501 130.477Z" fill="#867567"/>
<ellipse cx="82.6766" cy="115.456" rx="39.6566" ry="34.8165" transform="rotate(2 82.6766 115.456)" fill="black"/>
<ellipse cx="83.2197" cy="115.505" rx="32.2921" ry="27.9011" transform="rotate(-6 83.2197 115.505)" fill="#CDCDCD"/>
<ellipse cx="79.4157" cy="110.805" rx="29.0004" ry="22.8287" transform="rotate(-6 79.4157 110.805)" fill="white"/>
<ellipse cx="180.239" cy="106.294" rx="26.221" ry="29.6393" transform="rotate(2 180.239 106.294)" fill="black"/>
<ellipse cx="185.348" cy="105.64" rx="21.3471" ry="22.9906" transform="rotate(-6 185.348 105.64)" fill="#CDCDCD"/>
<ellipse cx="183.274" cy="102.285" rx="20.0751" ry="20.1445" transform="rotate(-6 183.274 102.285)" fill="white"/>
<path d="M3 113.352L5.44644 106.013L44.5896 111.721M121.245 109.274L157.126 104.382" stroke="black" stroke-width="6" stroke-linecap="round" stroke-linejoin="round"/>
<defs>
<radialGradient id="paint0_radial_2_38" cx="0" cy="0" r="1" gradientUnits="userSpaceOnUse" gradientTransform="translate(107.5 204.5) rotate(90.3808) scale(51.5011 71.0016)">
<stop offset="0.401042" stop-color="#364153"/>
<stop offset="0.817708" stop-color="#161B20"/>
</radialGradient>
<radialGradient id="paint1_radial_2_38" cx="0" cy="0" r="1" gradientUnits="userSpaceOnUse" gradientTransform="translate(114.475 108.189) rotate(90) scale(87.3537 92.0006)">
<stop stop-color="#F2D9C5"/>
<stop offset="1" stop-color="#9A8B7F"/>
</radialGradient>
<radialGradient id="paint2_radial_2_38" cx="0" cy="0" r="1" gradientUnits="userSpaceOnUse" gradientTransform="translate(114.475 108.189) rotate(90) scale(87.3537 92.0006)">
<stop stop-color="#F2D9C5"/>
<stop offset="1" stop-color="#9A8B7F"/>
</radialGradient>
</defs>
</svg>
